<?xml version="1.0" encoding="UTF-8"?><svg id="Layer_1" xmlns="http://www.w3.org/2000/svg" viewBox="0 0 902.13 846.87"><defs><style>.cls-1{opacity:.08;}.cls-2{fill:#ed6a5e;}.cls-3{fill:#ffe375;}.cls-4{fill:#cfcfcf;}</style></defs><path class="cls-2" d="M781.34,304.65c-95.32,95.33-189.69,177.98-272.99,241.24-53.69,40.76-102.77,73.47-144.55,96.31-65.21,35.67-112.61,47.29-131.88,28.02-.04-.04-.08-.08-.12-.13-19.05-19.3-7.51-66.43,27.86-131.23,22.85-41.89,55.66-91.15,96.6-145.06,63.25-83.3,145.91-177.67,241.23-273C723.71-5.42,832.75-22.71,878.79,23.1c46.12,45.88,29,155.1-97.45,281.55Z"/><path class="cls-4" d="M356.26,393.8c-40.94,53.91-73.75,103.17-96.6,145.06-35.37,64.8-46.91,111.93-27.86,131.23,.04,.05,.08,.09,.12,.13,19.27,19.27,66.67,7.65,131.88-28.02,41.78-22.84,90.86-55.55,144.55-96.31l-76.18-76.18-75.91-75.91Z"/><path class="cls-3" d="M236.11,833.65c-44.87,22.35-112.02,13.32-163.25-4.63-56.8-19.89-94.03-50.74-59.63-61.92,85.09-27.64,39.07-144.34,144.19-204.4,41.57-23.76,74.32-30.04,102.24-23.84,23.8,5.29,44.09,19.67,63.32,40.04,9.59,10.14,18.91,21.76,28.27,34.48,6.32,8.58,10.44,18.31,12.55,28.82,12.39,61.46-43.6,149.57-127.69,191.45Z"/><path class="cls-1" d="M781.34,304.65c-95.32,95.33-189.69,177.98-272.99,241.24-53.69,40.76-102.77,73.47-144.55,96.31,12.39,61.46-43.6,149.57-127.69,191.45-44.87,22.35-112.02,13.32-163.25-4.63l158.94-158.93,91.18-91.19,109.19-109.19L878.79,23.1c46.12,45.88,29,155.1-97.45,281.55Z"/></svg>