<?xml version="1.0" encoding="UTF-8"?><svg id="Layer_1" xmlns="http://www.w3.org/2000/svg" viewBox="0 0 945 670"><defs><style>.cls-1{fill:#ed6a5e;}.cls-2{fill:#fff;}.cls-3{fill:#f5bf4f;}.cls-4{fill:#2f3031;}.cls-5{fill:#5ebb52;}</style></defs><rect class="cls-4" width="945" height="670" rx="51.57" ry="51.57"/><rect y="132" width="945" height="460"/><rect y="236" width="945" height="434" rx="51.57" ry="51.57"/><circle class="cls-1" cx="77.27" cy="68.24" r="40.15"/><circle class="cls-3" cx="195.56" cy="68.24" r="40.15"/><circle class="cls-5" cx="313.86" cy="68.24" r="40.15"/><path class="cls-2" d="M287.01,286.92h0c-2.1-4.85-5.98-8.38-10.55-10.16l-147.36-63.74c-9.63-4.17-20.82,.27-24.98,9.9h0c-4.17,9.63,.27,20.82,9.9,24.98l107.68,46.57-107.43,46.46c-9.63,4.17-14.06,15.35-9.9,24.98h0c4.17,9.63,15.35,14.06,24.98,9.9l147.77-63.91c9.63-4.17,14.06-15.35,9.9-24.98Z"/><rect class="cls-2" x="305.13" y="345" width="237" height="34" rx="9.5" ry="9.5"/></svg>