<?xml version="1.0" encoding="UTF-8"?><svg id="Layer_1" xmlns="http://www.w3.org/2000/svg" viewBox="0 0 968.52 1223.1"><defs><style>.cls-1{opacity:.05;}.cls-2{opacity:.08;}.cls-3{fill:none;opacity:.11;stroke:#fff;stroke-miterlimit:10;stroke-width:25px;}.cls-4{fill:#f5edc4;}.cls-5{fill:#fff;}.cls-6{fill:#fff9db;}.cls-7{fill:gray;}.cls-8{fill:#61c554;}.cls-9{opacity:.02;}.cls-10{fill:#613924;opacity:.54;}</style></defs><path class="cls-6" d="M800.16,187.48c-10.12-14.73-27.08-24.38-46.29-24.38H297.1l-5.1,5.1L1.1,459.1l-1.1,1.1v706.77c0,14.6,5.57,27.89,14.71,37.88,.64,.7,1.29,1.38,1.97,2.05,10.14,10.02,24.07,16.2,39.45,16.2H753.87c31,0,56.13-25.13,56.13-56.13V219.23c0-11.79-3.63-22.72-9.84-31.75Z"/><path class="cls-4" d="M235.87,459.1c31,0,56.13-25.13,56.13-56.13V168.2L1.1,459.1H235.87Z"/><rect class="cls-10" x="144" y="576.63" width="522" height="32" rx="16" ry="16"/><rect class="cls-10" x="144" y="677.1" width="522" height="32" rx="16" ry="16"/><rect class="cls-10" x="144" y="777.57" width="522" height="32" rx="16" ry="16"/><rect class="cls-10" x="144" y="878.03" width="287" height="32" rx="16" ry="16"/><path class="cls-9" d="M810,409.57v757.4c0,31-25.13,56.13-56.13,56.13H56.13c-15.38,0-29.31-6.18-39.45-16.2-.68-.67-1.33-1.35-1.97-2.05l326.82-326.82,68.46-68.46,32.01-32,368-368Z"/><path class="cls-8" d="M699.12,1046.48c0,67.53-54.74,122.27-122.27,122.27-15.06,0-29.48-2.72-42.8-7.7-46.42-17.35-79.47-62.1-79.47-114.56,0-67.53,54.74-122.27,122.27-122.27,52.47,0,97.22,33.05,114.56,79.47,4.98,13.32,7.7,27.74,7.7,42.8Z"/><rect class="cls-5" x="489.8" y="1062.38" width="79.53" height="22.3" rx="11.15" ry="11.15" transform="translate(144.93 2207.1) rotate(-135)"/><rect class="cls-5" x="519.02" y="1035.34" width="156.09" height="22.3" rx="11.15" ry="11.15" transform="translate(1759.23 1364.27) rotate(135)"/><path class="cls-1" d="M699.12,1046.48c0,67.53-54.74,122.27-122.27,122.27-15.06,0-29.48-2.72-42.8-7.7l157.36-157.36c4.98,13.32,7.7,27.74,7.7,42.8Z"/><path class="cls-7" d="M941.99,225.01l.12-.07h-.12v-67.44l26.4-14.48-21.72-52.84-29.06,8.47,.04-.14-.09,.09-26.97-26.97-20.72-20.72,8.43-28.91L825.58,0l-14.56,26.53-.07-.12v.12h-67.45L729.02,.13l-52.84,21.72,8.47,29.06-.13-.04,.08,.09-47.69,47.69-28.91-8.43-22,52.72,26.53,14.56-.12,.07h.12v67.44l-26.4,14.49,21.72,52.84,29.06-8.47-.04,.13,.09-.08,20.67,20.67,27.02,27.01-8.43,28.91,52.72,22.01,14.56-26.54,.07,.13v-.13h67.45l14.48,26.4,52.84-21.72-8.47-29.06,.13,.04-.08-.08,47.69-47.69,28.91,8.42,22-52.72-26.53-14.56Zm-131.99,14.22c-9.32,6.38-20.59,10.11-32.74,10.11-17.64,0-33.45-7.87-44.09-20.28-8.72-10.16-13.99-23.37-13.99-37.8,0-10.22,2.64-19.82,7.27-28.16,9.91-17.85,28.95-29.92,50.81-29.92,14.44,0,27.64,5.26,37.8,13.98,12.41,10.65,20.28,26.45,20.28,44.1,0,19.93-10.04,37.52-25.34,47.97Z"/><path class="cls-3" d="M858.49,103.73c-21.31-19.79-49.86-31.89-81.23-31.89-56.25,0-103.42,38.89-116.07,91.26-2.19,9.03-3.35,18.46-3.35,28.16,0,31.37,12.1,59.92,31.89,81.23,21.81,23.49,52.95,38.18,87.53,38.18,11.36,0,22.34-1.58,32.74-4.54,50.04-14.24,86.68-60.27,86.68-114.87,0-34.58-14.7-65.73-38.19-87.53Zm-48.49,135.5c-9.32,6.38-20.59,10.11-32.74,10.11-17.64,0-33.45-7.87-44.09-20.28-8.72-10.16-13.99-23.37-13.99-37.8,0-10.22,2.64-19.82,7.27-28.16,9.91-17.85,28.95-29.92,50.81-29.92,14.44,0,27.64,5.26,37.8,13.98,12.41,10.65,20.28,26.45,20.28,44.1,0,19.93-10.04,37.52-25.34,47.97Z"/><path class="cls-2" d="M968.52,239.57l-22,52.72-28.91-8.43-47.69,47.69,.09,.09-.13-.04,8.47,29.06-52.84,21.72-14.48-26.4h-67.44v.12l-.07-.12-14.56,26.53-52.72-22,8.43-28.91-27.02-27.02,32.1-32.1,43.43-43.43c10.65,12.42,26.45,20.28,44.09,20.28,32.08,0,58.08-26,58.08-58.08,0-17.64-7.86-33.45-20.28-44.09l43.43-43.43,32.1-32.1,26.97,26.97,.09-.09-.04,.13,29.06-8.47,21.72,52.84-26.4,14.48v67.44h.12l-.12,.07,26.53,14.56Z"/></svg>