<?xml version="1.0" encoding="UTF-8"?><svg id="Layer_1" xmlns="http://www.w3.org/2000/svg" viewBox="0 0 1048.03 990.67"><defs><style>.cls-1{opacity:.03;}.cls-1,.cls-2{fill:#e8e8e8;}.cls-3{opacity:.06;}.cls-4{fill:#ed6a5e;}.cls-5{fill:#f5bf4f;}.cls-6{fill:#999;}.cls-7{fill:#7ecdfa;}.cls-8{fill:#858585;}.cls-9{fill:#61c453;}</style></defs><path class="cls-6" d="M684.39,895.12H16c-8.58,0-15.58-6.75-15.98-15.23-.01-.25-.02-.51-.02-.77v-32c0-8.84,7.16-16,16-16H680.58c-.39,5.65-.58,11.35-.58,17.09,0,16.03,1.51,31.71,4.39,46.91Z"/><rect class="cls-6" x="18.52" y="273.57" width="976" height="22" rx="11" ry="11" transform="translate(-74.4 292.89) rotate(-30.15)"/><path class="cls-5" d="M485,524.63v281.49h-208v-281.49c0-8.84,7.17-16.01,16.01-16.01h175.98c8.84,0,16.01,7.17,16.01,16.01Z"/><path class="cls-4" d="M208,682.13v123.99H0v-123.99c0-8.84,7.17-16.01,16.01-16.01H191.99c8.84,0,16.01,7.17,16.01,16.01Z"/><path class="cls-9" d="M1034,209.13v411.67c-31.67-14.51-66.89-22.59-104-22.59s-72.33,8.09-104,22.6V209.13c0-8.84,7.17-16.01,16.01-16.01h175.98c8.84,0,16.01,7.17,16.01,16.01Z"/><path class="cls-7" d="M759.5,368.13v297.24c-39.19,36.57-66.62,85.58-75.97,140.75h-132.03V368.13c0-8.84,7.17-16.01,16.01-16.01h175.98c8.84,0,16.01,7.17,16.01,16.01Z"/><circle class="cls-8" cx="655.5" cy="199.12" r="34"/><circle class="cls-8" cx="930" cy="34" r="34"/><circle class="cls-8" cx="381" cy="358.12" r="34"/><circle class="cls-8" cx="104" cy="514.62" r="34"/><polygon class="cls-3" points="208 806.12 127.04 806.12 208 759.1 208 806.12"/><polygon class="cls-3" points="485 806.12 277 806.12 277 719.02 485 598.21 485 806.12"/><path class="cls-3" d="M759.5,438.78v226.59c-39.19,36.57-66.62,85.58-75.97,140.75h-132.03v-246.53l208-120.81Z"/><path class="cls-3" d="M1034,279.35v341.45c-31.67-14.51-66.89-22.59-104-22.59s-72.33,8.09-104,22.6v-220.66l208-120.8Z"/><path class="cls-3" d="M684.39,895.12H16c-8.58,0-15.58-6.75-15.98-15.23l83.97-48.77H680.58c-.39,5.65-.58,11.35-.58,17.09,0,16.03,1.51,31.71,4.39,46.91Z"/><g><path class="cls-2" d="M1048.03,819.67v55.71c0,22.94-52.84,41.53-118.03,41.53-15.86,0-30.98-1.1-44.8-3.1-42.97-6.21-73.24-21.08-73.24-38.43v-55.71c0,22.93,52.84,41.53,118.03,41.53,2.66,0,5.29-.03,7.91-.09,61.5-1.43,110.12-19.44,110.12-41.44Z"/><path class="cls-2" d="M1048.03,893.43v55.71c0,22.93-52.84,41.53-118.03,41.53-43.09,0-80.79-8.13-101.39-20.26-10.57-6.22-16.64-13.5-16.64-21.27v-55.71c0,15.21,23.23,28.51,57.88,35.74,17.61,3.68,38.18,5.79,60.15,5.79,65.19,0,118.03-18.59,118.03-41.53Z"/><path class="cls-2" d="M1048.03,743.7v55.71c0,19.37-37.68,35.64-88.66,40.24-9.39,.84-19.23,1.29-29.37,1.29-65.19,0-118.03-18.6-118.03-41.53v-55.71c0-22.93,52.84-41.53,118.03-41.53s118.03,18.6,118.03,41.53Z"/></g><path class="cls-1" d="M1048.03,750.99v48.42c0,19.37-37.68,35.64-88.66,40.24l88.66-88.66Z"/><path class="cls-1" d="M1048.03,819.67v55.71c0,22.94-52.84,41.53-118.03,41.53-15.86,0-30.98-1.1-44.8-3.1l52.7-52.7c61.5-1.43,110.12-19.44,110.12-41.44Z"/><path class="cls-1" d="M1048.03,893.43v55.71c0,22.93-52.84,41.53-118.03,41.53-43.09,0-80.79-8.13-101.39-20.26l41.24-41.24c17.61,3.68,38.18,5.79,60.15,5.79,65.19,0,118.03-18.59,118.03-41.53Z"/></svg>